HIERARCHY
ROOT Hips
{
	OFFSET	0.000000	0.000000	0.000000
	CHANNELS	6	Xposition	Yposition	Zposition	Zrotation	Xrotation	Yrotation
	JOINT LeftHip
	{
		OFFSET	15.500000	-8.200000	0.000000
		CHANNELS	3	Zrotation	Xrotation	Yrotation
		JOINT LeftKnee
		{
			OFFSET	0.000000	-41.000000	0.000000
			CHANNELS	3	Zrotation	Xrotation	Yrotation
			JOINT LeftAnkle
			{
				OFFSET	0.000000	-41.500000	0.000000
				CHANNELS	3	Zrotation	Xrotation	Yrotation
				End Site
				{
					OFFSET	0.000000	0.000000	22.875000
				}
			}
		}
	}
	JOINT RightHip
	{
		OFFSET	-15.500000	-8.200000	0.000000
		CHANNELS	3	Zrotation	Xrotation	Yrotation
		JOINT RightKnee
		{
			OFFSET	0.000000	-41.000000	0.000000
			CHANNELS	3	Zrotation	Xrotation	Yrotation
			JOINT RightAnkle
			{
				OFFSET	0.000000	-41.500000	0.000000
				CHANNELS	3	Zrotation	Xrotation	Yrotation
				End Site
				{
					OFFSET	0.000000	0.000000	22.875000
				}
			}
		}
	}
	JOINT Chest
	{
		OFFSET	0.000000	16.666667	0.000000
		CHANNELS	3	Zrotation	Xrotation	Yrotation
		JOINT LeftCollar
		{
			OFFSET	4.625000	33.333333	1.541667
			CHANNELS	3	Zrotation	Xrotation	Yrotation
			JOINT LeftShoulder
			{
				OFFSET	13.875000	0.000000	0.000000
				CHANNELS	3	Zrotation	Xrotation	Yrotation
				JOINT LeftElbow
				{
					OFFSET	0.000000	-28.000000	0.000000
					CHANNELS	3	Zrotation	Xrotation	Yrotation
					JOINT LeftWrist
					{
						OFFSET	0.000000	-25.000000	0.000000
						CHANNELS	3	Zrotation	Xrotation	Yrotation
						End Site
						{
							OFFSET	0.000000	-7.500000	0.000000
						}
					}
				}
			}
		}
		JOINT RightCollar
		{
			OFFSET	-4.625000	33.333333	1.541667
			CHANNELS	3	Zrotation	Xrotation	Yrotation
			JOINT RightShoulder
			{
				OFFSET	-13.875000	0.000000	0.000000
				CHANNELS	3	Zrotation	Xrotation	Yrotation
				JOINT RightElbow
				{
					OFFSET	0.000000	-28.000000	0.000000
					CHANNELS	3	Zrotation	Xrotation	Yrotation
					JOINT RightWrist
					{
						OFFSET	0.000000	-25.000000	0.000000
						CHANNELS	3	Zrotation	Xrotation	Yrotation
						End Site
						{
							OFFSET	0.000000	-7.500000	0.000000
						}
					}
				}
			}
		}
		JOINT Neck
		{
			OFFSET	0.000000	33.333333	0.000000
			CHANNELS	3	Zrotation	Xrotation	Yrotation
			JOINT Head
			{
				OFFSET	0.000000	12.000000	0.000000
				CHANNELS	3	Zrotation	Xrotation	Yrotation
				End Site
				{
					OFFSET	0.000000	15.000000	0.000000
				}
			}
		}
	}
}
MOTION
Frames:	12
Frame Time:	0.012000
0.38	103.78	-66.14	0.60	9.07	1.54	3.75	-15.94	0.23	-1.62	9.40	4.89	-4.22	36.42	8.12	4.81	-12.41	-4.50	-4.97	6.37	-3.03	-2.54	30.67	-2.01	2.92	3.92	-4.37	0.00	0.00	0.00	37.43	-7.98	83.23	-20.60	12.52	-8.34	-7.36	-0.18	0.00	0.00	0.00	0.00	-32.62	-23.08	-91.81	13.13	23.02	-3.18	0.47	-0.27	0.00	0.00	0.00	0.00	-11.80	3.95	37.54
0.13	103.68	-66.33	0.60	9.07	1.54	3.90	-16.07	0.12	-1.69	9.53	4.89	-4.17	36.69	8.21	4.42	-12.54	-3.81	-4.18	7.02	-3.04	-2.32	30.18	-1.98	2.99	3.93	-4.34	0.00	0.00	0.00	37.58	-7.99	83.19	-20.62	12.68	-8.38	-7.37	-0.18	0.00	0.00	0.00	0.00	-32.41	-23.12	-91.18	13.46	22.98	-3.49	0.40	-0.33	0.00	0.00	0.00	0.00	-11.87	3.94	37.50
-0.30	103.59	-66.28	0.60	9.07	1.54	4.07	-16.17	0.04	-1.75	9.58	4.89	-4.11	37.10	8.24	4.00	-12.70	-3.10	-3.37	7.61	-3.05	-2.29	29.81	-1.89	3.06	3.95	-4.29	0.00	0.00	0.00	37.75	-7.97	83.19	-20.66	12.85	-8.44	-7.38	-0.17	0.00	0.00	0.00	0.00	-32.18	-23.15	-90.50	13.84	22.95	-3.79	0.34	-0.39	0.00	0.00	0.00	0.00	-11.93	3.93	37.45
-0.63	103.51	-66.30	0.29	8.91	2.01	4.25	-16.25	0.00	-1.80	9.58	4.89	-4.04	37.53	8.23	3.58	-12.89	-2.42	-2.62	8.13	-3.06	-2.37	29.60	-1.76	3.13	4.00	-4.25	0.00	0.00	0.00	37.95	-7.90	83.21	-20.73	13.10	-8.52	-7.41	-0.17	0.00	0.00	0.00	0.00	-31.96	-23.13	-89.79	14.29	22.97	-4.08	0.29	-0.45	0.00	0.00	0.00	0.00	-11.38	3.93	37.17
-0.60	103.43	-66.77	0.29	8.91	2.01	4.44	-16.31	0.01	-1.82	9.52	4.89	-3.92	38.00	8.16	3.17	-13.11	-1.81	-1.92	8.63	-3.06	-2.46	29.52	-1.65	3.20	4.06	-4.22	0.00	0.00	0.00	38.14	-7.81	83.28	-20.81	13.36	-8.61	-7.44	-0.15	0.00	0.00	0.00	0.00	-31.71	-23.07	-89.06	14.76	23.00	-4.34	0.23	-0.50	0.00	0.00	0.00	0.00	-11.43	3.88	37.11
-0.76	103.38	-66.82	0.24	8.92	2.19	4.63	-16.37	0.08	-1.82	9.41	4.89	-3.78	38.49	8.11	2.79	-13.37	-1.28	-1.33	9.02	-3.07	-2.52	29.51	-1.58	3.23	4.12	-4.17	0.00	0.00	0.00	38.26	-7.72	83.39	-20.89	13.58	-8.71	-7.48	-0.15	0.00	0.00	0.00	0.00	-31.51	-23.02	-88.32	15.25	23.05	-4.58	0.18	-0.53	0.00	0.00	0.00	0.00	-11.38	3.85	36.88
-0.87	103.35	-67.02	0.14	8.95	2.59	4.82	-16.41	0.18	-1.79	9.25	4.88	-3.62	39.02	8.03	2.44	-13.67	-0.83	-0.84	9.38	-3.07	-2.45	29.57	-1.55	3.25	4.19	-4.12	0.00	0.00	0.00	38.37	-7.59	83.51	-21.00	13.77	-8.77	-7.53	-0.14	0.00	0.00	0.00	0.00	-31.30	-22.90	-87.60	15.78	23.13	-4.76	0.12	-0.57	0.00	0.00	0.00	0.00	-11.21	3.70	36.66
-1.02	103.34	-67.30	0.07	8.98	2.92	5.00	-16.43	0.31	-1.73	9.04	4.88	-3.46	39.53	8.00	2.13	-14.00	-0.49	-0.48	9.66	-3.07	-2.32	29.60	-1.50	3.25	4.27	-4.07	0.00	0.00	0.00	38.40	-7.43	83.64	-21.10	13.90	-8.84	-7.59	-0.15	0.00	0.00	0.00	0.00	-31.10	-22.77	-86.92	16.30	23.23	-4.93	0.08	-0.60	0.00	0.00	0.00	0.00	-11.08	3.65	36.28
-1.11	103.35	-67.69	0.03	9.02	3.22	5.19	-16.42	0.48	-1.66	8.78	4.88	-3.28	40.01	7.93	1.84	-14.35	-0.16	-0.15	9.83	-3.07	-2.24	29.66	-1.41	3.24	4.35	-4.01	0.00	0.00	0.00	38.44	-7.28	83.79	-21.19	14.01	-8.85	-7.67	-0.14	0.00	0.00	0.00	0.00	-30.93	-22.61	-86.31	16.84	23.36	-5.09	0.03	-0.64	0.00	0.00	0.00	0.00	-10.98	3.58	35.92
-1.24	103.37	-68.15	-0.04	9.12	3.81	5.37	-16.37	0.64	-1.59	8.48	4.87	-3.10	40.52	7.82	1.57	-14.69	0.16	0.16	9.96	-3.08	-2.15	29.62	-1.30	3.21	4.42	-3.95	0.00	0.00	0.00	38.47	-7.16	83.94	-21.24	14.04	-8.84	-7.74	-0.13	0.00	0.00	0.00	0.00	-30.77	-22.44	-85.76	17.33	23.51	-5.22	-0.03	-0.66	0.00	0.00	0.00	0.00	-10.90	3.41	35.52
-1.51	103.38	-68.67	-0.09	9.20	4.27	5.57	-16.29	0.78	-1.53	8.16	4.87	-2.88	41.01	7.63	1.29	-15.02	0.50	0.50	10.02	-3.08	-2.14	29.54	-1.14	3.17	4.48	-3.87	0.00	0.00	0.00	38.48	-7.04	84.09	-21.28	14.10	-8.76	-7.80	-0.12	0.00	0.00	0.00	0.00	-30.61	-22.27	-85.29	17.82	23.68	-5.32	-0.06	-0.70	0.00	0.00	0.00	0.00	-10.74	3.34	34.98
-1.73	103.39	-69.20	-0.09	9.20	4.27	5.75	-16.18	0.92	-1.45	7.83	4.87	-2.63	41.52	7.45	1.01	-15.33	0.85	0.83	10.05	-3.08	-2.06	29.47	-0.98	3.12	4.55	-3.82	0.00	0.00	0.00	38.43	-6.92	84.23	-21.33	14.11	-8.69	-7.86	-0.11	0.00	0.00	0.00	0.00	-30.50	-22.09	-84.89	18.26	23.88	-5.41	-0.08	-0.73	0.00	0.00	0.00	0.00	-10.67	3.29	34.92
